<?xml version="1.0" standalone="no"?>
<!DOCTYPE svg PUBLIC "-//W3C//DTD SVG 20010904//EN"
 "http://www.w3.org/TR/2001/REC-SVG-20010904/DTD/svg10.dtd">
<svg version="1.0" xmlns="http://www.w3.org/2000/svg"
 width="250.000000pt" height="250.000000pt" viewBox="0 0 250.000000 250.000000"
 preserveAspectRatio="xMidYMid meet">

<g transform="translate(0.000000,250.000000) scale(0.100000,-0.100000)"
fill="#000000" stroke="none">
<path d="M995 2368 c-11 -6 -33 -22 -48 -35 -16 -13 -32 -21 -37 -18 -10 6
-54 -13 -106 -47 -46 -30 -144 -166 -144 -201 -1 -24 -33 -123 -44 -134 -3 -4
-29 -6 -57 -4 -87 4 -112 -43 -66 -124 l23 -40 66 0 c59 0 70 -3 95 -27 28
-27 60 -109 49 -126 -3 -5 1 -15 9 -22 16 -13 19 -5 30 82 5 41 9 47 34 53 27
6 86 -18 116 -46 12 -12 57 -11 89 1 29 11 34 27 11 32 -9 2 -12 8 -6 17 7 10
13 11 29 2 14 -7 23 -8 27 -1 13 21 27 10 21 -16 -6 -22 -4 -25 16 -22 20 3
23 9 23 43 0 36 3 40 28 43 16 2 35 -2 43 -9 11 -9 14 -8 14 5 0 22 6 20 44
-10 31 -25 49 -29 144 -35 12 -1 22 -6 22 -11 0 -7 -17 -8 -45 -5 -46 7 -71
-7 -34 -18 45 -15 92 -8 109 16 14 18 24 21 54 16 27 -4 36 -2 36 9 0 19 26
18 34 -1 4 -12 10 -14 25 -5 24 13 29 5 61 -97 24 -78 42 -91 59 -43 5 17 12
30 14 30 8 0 -23 -173 -34 -186 -6 -8 -20 -14 -29 -14 -12 0 -21 -10 -25 -31
-4 -18 -20 -59 -36 -93 -16 -34 -29 -71 -29 -83 0 -12 20 -55 45 -96 48 -80
64 -89 170 -102 29 -4 69 -19 95 -35 41 -26 51 -28 103 -23 49 5 57 8 50 22
-4 9 -8 48 -8 86 -1 103 -2 104 -38 50 -39 -61 -60 -67 -82 -26 -15 31 -23
159 -11 180 4 5 9 31 12 58 3 26 10 51 16 54 6 4 7 20 3 38 -5 24 -2 37 11 52
23 26 49 24 72 -6 27 -34 31 -22 21 55 -5 36 -10 75 -11 88 -4 37 -51 30 -84
-14 -25 -32 -29 -34 -40 -20 -7 10 -12 59 -12 125 -1 92 1 111 16 124 29 26
153 39 282 30 115 -8 184 -7 228 3 18 4 23 10 20 32 l-3 27 -297 0 c-189 0
-301 4 -307 10 -6 6 -17 28 -24 49 -8 23 -21 40 -31 42 -25 4 -56 34 -56 56 0
10 -7 18 -15 18 -8 0 -15 4 -15 9 0 5 -6 16 -13 23 -7 7 -26 31 -44 53 -17 23
-40 41 -50 42 -10 1 -43 7 -73 13 -30 7 -74 12 -98 11 -26 0 -41 3 -37 9 3 6
-4 10 -17 10 -21 1 -22 2 -5 14 16 13 15 15 -15 27 l-33 13 28 3 c15 3 27 8
27 13 0 13 -49 21 -125 19 -84 -2 -128 -19 -51 -19 64 0 56 -6 -16 -13 -32 -3
-66 -11 -77 -16 -33 -18 -34 -12 -2 26 30 36 34 56 9 36 -14 -10 -87 -33 -106
-33 -6 0 -9 7 -6 15 4 8 12 15 19 15 8 0 17 5 20 10 8 13 -5 12 -30 -2z m296
-53 c0 -5 -9 -11 -21 -13 -20 -3 -27 8 -13 22 10 9 34 3 34 -9z m-16 -193 c12
-7 11 -7 145 -21 136 -14 154 -31 135 -125 -6 -29 -4 -48 8 -70 8 -17 17 -40
20 -51 3 -11 8 -28 12 -37 6 -15 2 -18 -21 -18 -16 0 -38 7 -48 15 -11 8 -36
15 -55 15 l-36 0 43 -20 c52 -24 54 -30 5 -20 -21 5 -67 8 -102 8 -41 -1 -66
3 -69 10 -2 7 3 12 11 12 9 0 17 5 19 11 2 6 21 14 43 18 21 3 40 11 42 18 6
17 -122 9 -167 -10 -20 -9 -42 -27 -50 -41 -14 -27 -38 -32 -75 -16 -11 5 -16
9 -11 9 5 1 3 7 -3 15 -7 8 -44 20 -84 26 -40 6 -89 16 -109 21 -50 13 -87 3
-94 -27 -6 -22 -13 -27 -31 -22 -11 3 -4 31 9 39 6 4 42 38 82 76 63 61 119
99 251 169 38 21 108 29 130 16z m-269 -323 c3 -5 -22 -9 -55 -9 -48 0 -61 -3
-61 -15 0 -8 -4 -15 -10 -15 -5 0 -10 3 -10 8 1 37 115 64 136 31z m-156 -3
c0 -7 -7 -19 -15 -26 -19 -16 -41 1 -32 24 8 20 47 21 47 2z m750 -26 c0 -5
-4 -10 -10 -10 -5 0 -10 5 -10 10 0 6 5 10 10 10 6 0 10 -4 10 -10z m417 -732
c-3 -8 -6 -5 -6 6 -1 11 2 17 5 13 3 -3 4 -12 1 -19z"/>
<path d="M1450 1866 c0 -10 8 -16 22 -16 12 0 19 1 17 3 -2 1 -12 9 -21 16
-15 12 -18 11 -18 -3z"/>
<path d="M1510 2310 c0 -5 5 -10 10 -10 6 0 10 5 10 10 0 6 -4 10 -10 10 -5 0
-10 -4 -10 -10z"/>
<path d="M1400 2301 c0 -6 8 -11 18 -12 14 0 14 -2 -3 -9 -20 -8 -19 -9 1 -9
12 -1 27 6 34 14 10 12 10 15 -3 15 -8 0 -22 3 -31 6 -9 3 -16 1 -16 -5z"/>
<path d="M0 2105 c0 -26 14 -31 39 -16 12 8 12 12 2 25 -20 24 -41 19 -41 -9z"/>
<path d="M206 2107 c-19 -14 -18 -15 15 -33 24 -13 62 -19 129 -21 83 -3 98
-1 120 16 43 34 15 46 -123 49 -94 3 -126 0 -141 -11z"/>
<path d="M2410 2095 c0 -12 7 -15 25 -13 14 2 26 8 26 13 0 6 -12 11 -26 13
-18 2 -25 -1 -25 -13z"/>
<path d="M120 1915 c-10 -13 -11 -59 -4 -238 5 -122 9 -394 8 -604 -1 -387 1
-411 33 -370 6 7 13 179 17 432 3 231 8 438 11 460 8 66 27 268 29 300 1 28
-1 30 -40 33 -28 2 -45 -2 -54 -13z"/>
<path d="M1206 1741 c-4 -6 -4 -21 -1 -32 7 -20 8 -20 23 -5 15 15 15 17 0 32
-11 11 -18 12 -22 5z"/>
<path d="M2306 1718 c-14 -21 -14 -28 0 -68 13 -36 14 -51 4 -77 -12 -35 -6
-57 13 -50 10 3 17 68 18 181 0 33 -18 40 -35 14z"/>
<path d="M1079 1523 c-31 -13 -40 -49 -16 -59 21 -8 97 -7 167 2 56 8 65 12
68 31 3 18 -3 22 -39 28 -69 12 -150 11 -180 -2z"/>
<path d="M860 1398 c0 -10 -7 -18 -15 -18 -19 0 -14 -64 8 -106 19 -37 96
-118 105 -110 8 9 62 -45 62 -61 0 -27 -47 -19 -83 15 -35 34 -49 21 -57 -55
-9 -74 26 -251 74 -378 l33 -90 49 0 c61 -1 74 3 74 21 0 8 6 14 13 15 6 0 33
2 59 4 27 1 54 8 63 15 8 6 19 9 24 6 5 -4 14 0 18 9 5 8 25 16 46 17 20 2 37
7 37 11 0 5 6 7 13 4 6 -2 20 0 29 4 10 6 19 5 23 -1 4 -6 10 -8 15 -5 5 3 18
1 28 -4 25 -13 32 1 76 169 36 134 45 221 26 250 -8 13 -10 12 -10 -3 0 -10
-4 -15 -10 -12 -5 3 -10 17 -10 31 0 26 -14 30 -65 16 -37 -11 -55 -5 -55 16
0 8 3 12 7 9 10 -10 92 79 99 108 3 14 11 22 16 19 6 -4 8 2 6 12 -3 18 -20
21 -58 11 -57 -15 -69 -21 -77 -40 -21 -47 -30 -86 -26 -111 3 -16 1 -26 -6
-26 -7 0 -9 5 -5 12 5 8 2 9 -12 4 -53 -22 -88 -28 -183 -32 -133 -6 -161 5
-178 69 -7 25 -19 51 -26 59 -21 21 -4 58 27 58 17 0 27 -8 35 -27 22 -60 71
-86 138 -76 61 9 90 28 97 64 3 17 4 34 2 38 -6 8 26 14 77 13 29 0 37 4 37
18 0 27 -24 41 -67 40 -21 0 -76 1 -123 3 -57 3 -99 -1 -129 -10 -32 -11 -46
-12 -51 -3 -9 14 -60 2 -67 -16 -3 -8 -12 -14 -20 -14 -8 0 -12 4 -9 8 3 5 -8
22 -24 37 -20 19 -30 24 -30 14 0 -12 -2 -12 -10 1 -8 13 -10 12 -10 -2z m405
-88 c-7 -12 -72 -30 -108 -30 -16 0 -38 5 -50 12 -21 11 -21 11 -2 19 30 11
167 11 160 -1z"/>
<path d="M1993 1397 l-23 -10 27 -14 c31 -16 40 -11 27 16 -7 15 -13 17 -31 8z"/>
<path d="M753 1355 c-3 -9 -3 -31 0 -49 4 -23 -1 -47 -14 -74 -16 -31 -20 -65
-23 -165 l-4 -126 48 24 c50 25 69 55 104 161 18 56 14 79 -26 126 l-23 27 2
-63 c2 -47 -2 -66 -12 -69 -28 -11 -38 22 -37 123 1 97 -2 117 -15 85z"/>
<path d="M2317 1150 c-9 -25 -17 -53 -17 -62 0 -9 -8 -26 -18 -38 -18 -22 -18
-24 0 -59 17 -32 19 -59 7 -100 -3 -11 112 -108 131 -110 8 -1 4 118 -4 126
-3 3 -6 1 -6 -5 0 -7 -7 -12 -15 -12 -23 0 -18 39 8 74 45 59 44 96 -2 96 -32
0 -51 27 -60 89 l-6 46 -18 -45z"/>
<path d="M559 1122 c-4 -41 0 -95 8 -102 4 -4 27 -10 49 -14 42 -6 42 -6 46
29 4 38 -21 70 -74 93 -24 10 -28 9 -29 -6z"/>
<path d="M368 970 c-62 -11 -78 -33 -78 -105 0 -37 6 -69 14 -80 14 -19 15
-19 69 -1 72 24 142 94 133 131 -7 27 -60 66 -86 64 -8 -1 -32 -5 -52 -9z"/>
<path d="M1507 583 c-6 -13 -9 -173 -2 -173 10 0 24 47 27 90 1 22 6 40 11 40
4 0 5 5 1 12 -4 7 -3 8 4 4 7 -4 12 -35 12 -76 0 -87 16 -99 23 -17 3 34 8 70
12 80 6 13 -1 20 -29 32 -40 17 -53 18 -59 8z"/>
<path d="M900 530 c-26 -7 -26 -9 -5 -75 l13 -40 1 38 c1 35 3 37 16 23 9 -8
22 -30 30 -48 13 -29 14 -30 15 -9 0 19 3 21 14 12 11 -9 18 -8 30 4 15 15 17
14 26 -10 5 -14 10 -30 10 -34 0 -4 7 -16 15 -27 14 -17 14 -15 9 26 -8 56
-19 70 -54 70 -27 0 -60 26 -60 48 0 18 -32 30 -60 22z"/>
<path d="M1456 524 c-3 -8 -10 -12 -16 -9 -5 3 -10 1 -10 -4 0 -6 5 -11 10
-11 15 0 12 -32 -5 -54 -17 -23 -20 -40 -5 -31 6 4 7 -1 3 -11 -4 -12 -3 -15
5 -10 7 4 12 2 12 -5 0 -8 3 -9 9 -3 13 13 24 154 13 154 -6 0 -13 -7 -16 -16z"/>
<path d="M1610 465 c0 -43 4 -75 10 -75 6 0 11 12 12 28 5 103 3 122 -13 122
-5 0 -9 -34 -9 -75z"/>
<path d="M844 509 c-3 -6 -1 -16 5 -22 8 -8 11 -5 11 11 0 24 -5 28 -16 11z"/>
<path d="M782 464 c-21 -21 -31 -41 -28 -50 3 -9 6 -29 6 -45 0 -38 16 -37 24
2 7 35 26 30 26 -7 0 -13 4 -24 9 -24 14 0 20 29 16 70 -1 19 -3 47 -4 63 -1
35 -9 33 -49 -9z"/>
<path d="M1658 488 c7 -7 12 -27 12 -44 0 -18 5 -36 10 -39 6 -4 10 11 10 38
0 32 -5 47 -16 51 -24 9 -29 7 -16 -6z"/>
<path d="M868 413 c6 -82 24 -105 19 -25 -2 34 -8 67 -14 73 -6 6 -8 -9 -5
-48z"/>
<path d="M1730 422 l5 -47 3 39 c2 21 0 42 -5 47 -4 4 -6 -13 -3 -39z"/>
<path d="M1390 426 c-12 -32 -12 -73 -1 -101 6 -14 11 -1 16 48 8 73 2 96 -15
53z"/>
<path d="M1790 409 c0 -22 4 -38 8 -35 8 5 4 76 -4 76 -2 0 -4 -18 -4 -41z"/>
<path d="M1106 383 c4 -16 11 -39 17 -53 15 -38 21 1 7 45 -14 41 -33 47 -24
8z"/>
<path d="M1021 384 c0 -11 3 -14 6 -6 3 7 2 16 -1 19 -3 4 -6 -2 -5 -13z"/>
<path d="M1346 375 c-3 -9 -6 -31 -5 -48 1 -28 2 -26 10 12 9 46 6 65 -5 36z"/>
<path d="M701 335 c1 -40 1 -40 11 -12 7 21 7 32 -1 40 -8 8 -11 0 -10 -28z"/>
<path d="M1168 87 c-5 -10 -8 -35 -8 -55 1 -30 2 -34 11 -19 6 9 9 34 7 55 -2
28 -5 32 -10 19z"/>
</g>
</svg>
