<svg xmlns="http://www.w3.org/2000/svg" enable-background="new 0 0 512 512" version="1.1" viewBox="0 0 512 512" xml:space="preserve"><path d="m388.23 0h-264.45c-47.167 0-85.541 38.374-85.541 85.541v215.93c0 47.167 38.374 85.541 85.541 85.541h44.257l-8.725 103.57c-1.453 17.242 18.35 27.699 31.795 17.234l155.2-120.8h41.92c47.167 0 85.541-38.373 85.541-85.541v-215.93c0-47.167-38.374-85.541-85.541-85.541zm46.062 301.47h-1e-3c0 25.398-20.663 46.06-46.06 46.06h-48.697c-4.392 0-8.659 1.465-12.124 4.163l-124.97 97.273 5.219-61.955h16.946c10.902 0 19.74-8.838 19.74-19.74s-8.838-19.74-19.74-19.74h-100.82c-25.398 0-46.06-20.663-46.06-46.06v-215.93c0-25.398 20.663-46.06 46.06-46.06h264.45c25.398 0 46.06 20.663 46.06 46.06v215.93z" fill="#fff"/><path d="m358.01 128.66c-0.921 0.276-1.849 0.538-2.783 0.786-3.172 0.842-5.482-3.052-3.219-5.427 2.375-2.492 4.468-5.25 6.227-8.222 1.649-2.785-1.255-6.025-4.199-4.677-6.108 2.794-12.576 4.949-19.318 6.392-1.09 0.233-2.214-0.137-3.01-0.917-30.946-30.321-84.664-4.206-78.172 38.692 0.316 2.09-1.445 3.903-3.551 3.732-34.883-2.849-65.891-19.112-87.69-43.544-1.582-1.773-4.474-1.341-5.45 0.825-7.354 16.337-4.235 35.561 7.941 48.834 2.266 2.47-0.125 6.369-3.336 5.402-3.123-0.94-6.106-2.194-8.905-3.723v0.576c0 17.191 9.715 32.163 24.038 39.884 2.903 1.565 2.407 6.496-2.498 6.141-2.491-0.18-4.307 2.383-3.235 4.639 6.096 12.828 18.103 22.4 32.571 25.312 2.924 0.588 3.63 4.432 1.104 6.019-14.464 9.092-30.867 13.865-47.422 14.316-3.431 0.093-4.46 4.718-1.379 6.233 17.632 8.667 37.504 13.571 58.539 13.571 84.915 0 131.33-69.23 131.33-129.28 0-1.387-0.013-2.774-0.053-4.155-0.03-1.084 0.467-2.102 1.34-2.746 5.29-3.907 10.154-8.379 14.493-13.305 2.182-2.478-0.2-6.307-3.362-5.36z" fill="#1d9bf0"/></svg>